<svg width="30" height="30" viewBox="0 0 30 30" fill="none" xmlns="http://www.w3.org/2000/svg">
<path d="M15 9.99474C12.3 9.99474 9.99474 12.3 9.99474 15C9.99474 17.7 12.2842 20.0053 15 20.0053C17.7158 20.0053 20.0053 17.7158 20.0053 15C20.0053 12.2842 17.7158 9.99474 15 9.99474Z" fill="#555555"/>
<path d="M21.4105 0H8.73158C3.82105 0 0 3.82105 0 8.58947V21.2684C0 26.1789 3.82105 30 8.73158 30H21.4105C26.1789 30 30 26.1789 30 21.2684V8.58947C30 3.82105 26.1789 0 21.4105 0ZM15 22.9105C10.6421 22.9105 7.23158 19.3579 7.23158 15.1421C7.23158 10.9263 10.6421 7.23158 15 7.23158C19.3579 7.23158 22.7684 10.7842 22.7684 15C22.7684 19.2158 19.3579 22.9105 15 22.9105ZM23.0526 8.85789C22.1053 8.85789 21.2842 8.03684 21.2842 7.08947C21.2842 6.14211 22.1053 5.32105 23.0526 5.32105C24 5.32105 24.8211 6.14211 24.8211 7.08947C24.8211 8.03684 24 8.85789 23.0526 8.85789Z" fill="#555555"/>
</svg>
