<svg width="205" height="32" viewBox="0 0 205 32" fill="none" xmlns="http://www.w3.org/2000/svg">
<path d="M58.3392 7.13011L55.1343 19.2613L51.9764 7.13011H48.0261L44.8447 19.3026L41.6633 7.13011H37.6601L42.7492 24.864H46.588L49.9044 13.2164L53.2149 24.864H57.0596L62.1486 7.13011H58.3392Z" fill="#00A0D2"/>
<path d="M72.8902 21.3727L74.1463 24.864H78.3197L71.4756 7.13011H67.5018L60.6577 24.864H64.4965L65.7526 21.3727H72.8902ZM69.3214 11.341L71.7573 18.1526H66.8855L69.3214 11.341Z" fill="#00A0D2"/>
<path d="M88.7737 7.13011L84.4066 15.7995L80.0102 7.13011H75.7487L82.3639 19.3439V24.864H86.0912L86.1088 19.279L92.7064 7.13011H88.7737Z" fill="#00A0D2"/>
<path d="M106.682 15.6933L106.312 15.5754L106.676 15.4397C107.797 15.0151 108.678 13.6646 108.678 12.3612C108.678 9.0822 106.4 7.13011 102.591 7.13011H94.9427V24.864H103.254C107.175 24.864 109.517 22.8765 109.517 19.5444C109.517 17.84 108.326 16.2241 106.688 15.6992L106.682 15.6933ZM98.67 10.2794H102.409C104.017 10.2794 104.939 11.0402 104.939 12.3612C104.939 13.6823 104.017 14.4195 102.409 14.4195H98.67V10.2794ZM103.072 21.7088H98.67V17.3741H103.072C104.769 17.3741 105.778 18.1821 105.778 19.5444C105.778 20.9067 104.763 21.7147 103.072 21.7147V21.7088Z" fill="#00A0D2"/>
<path d="M112.135 7.13011V24.864H124.814V21.5791H115.868V7.13011H112.135Z" fill="#00A0D2"/>
<path d="M139.394 17.5098V14.2897H130.842V10.3502H140.163V7.13011H127.109V24.864H140.363V21.6439H130.842V17.5098H139.394Z" fill="#00A0D2"/>
<path d="M160.273 17.0616C160.907 17.0616 161.423 17.1382 161.828 17.2975C162.233 17.4567 162.591 17.6572 162.908 17.899L162.268 18.9193C161.916 18.6598 161.588 18.4829 161.288 18.3944C160.983 18.3059 160.648 18.2588 160.279 18.2588C160.026 18.2588 159.786 18.3 159.557 18.3826C159.328 18.4652 159.122 18.6008 158.946 18.7836C158.77 18.9665 158.629 19.1965 158.524 19.4795C158.418 19.7567 158.365 20.0929 158.365 20.488V21.4552C158.365 21.868 158.418 22.216 158.524 22.5109C158.629 22.8057 158.776 23.0417 158.958 23.2245C159.14 23.4073 159.345 23.537 159.586 23.6255C159.827 23.714 160.067 23.7494 160.32 23.7494C160.819 23.7494 161.235 23.6845 161.564 23.5547C161.893 23.425 162.192 23.254 162.462 23.0534L163.12 24.0914C162.85 24.3155 162.486 24.516 162.034 24.6989C161.576 24.8817 161.001 24.9701 160.308 24.9701C159.251 24.9701 158.436 24.6635 157.86 24.0442C157.285 23.425 157.003 22.5698 157.003 21.467V20.4998C157.003 19.9513 157.08 19.4618 157.238 19.0372C157.397 18.6126 157.614 18.2529 157.901 17.958C158.183 17.6631 158.529 17.439 158.934 17.2857C159.339 17.1323 159.791 17.0557 160.29 17.0557L160.273 17.0616Z" fill="#00A0D2"/>
<path d="M165.902 14.4548V15.941H164.464V14.4548H165.902ZM165.861 17.2031V24.864H164.511V17.2031H165.861Z" fill="#00A0D2"/>
<path d="M172.229 18.53C172.1 18.477 171.959 18.4298 171.807 18.3944C171.654 18.359 171.484 18.3472 171.296 18.3472C171.044 18.3472 170.803 18.3944 170.58 18.4947C170.351 18.5949 170.157 18.7306 169.987 18.9134C169.817 19.0962 169.682 19.3144 169.582 19.5621C169.482 19.8098 169.429 20.087 169.429 20.3878V24.8522H168.079V17.1913H169.388V18.4121H169.4C169.623 17.9816 169.911 17.6513 170.269 17.4095C170.627 17.1736 171.085 17.0557 171.642 17.0557C171.977 17.0557 172.306 17.1087 172.634 17.209L172.229 18.5241V18.53Z" fill="#00A0D2"/>
<path d="M176.743 17.0616C177.377 17.0616 177.894 17.1382 178.299 17.2975C178.704 17.4567 179.062 17.6572 179.379 17.899L178.739 18.9193C178.387 18.6598 178.058 18.4829 177.759 18.3944C177.453 18.3059 177.119 18.2588 176.749 18.2588C176.497 18.2588 176.256 18.3 176.027 18.3826C175.798 18.4652 175.593 18.6008 175.417 18.7836C175.241 18.9665 175.1 19.1965 174.994 19.4795C174.888 19.7567 174.835 20.0929 174.835 20.488V21.4552C174.835 21.868 174.888 22.216 174.994 22.5109C175.1 22.8057 175.246 23.0417 175.428 23.2245C175.61 23.4073 175.816 23.537 176.056 23.6255C176.297 23.714 176.538 23.7494 176.79 23.7494C177.289 23.7494 177.706 23.6845 178.035 23.5547C178.363 23.425 178.663 23.254 178.933 23.0534L179.59 24.0914C179.32 24.3155 178.956 24.516 178.504 24.6989C178.046 24.8817 177.471 24.9701 176.778 24.9701C175.722 24.9701 174.906 24.6635 174.331 24.0442C173.761 23.4309 173.474 22.5698 173.474 21.467V20.4998C173.474 19.9513 173.55 19.4618 173.709 19.0372C173.867 18.6126 174.084 18.2529 174.372 17.958C174.654 17.6631 175 17.439 175.405 17.2857C175.81 17.1323 176.262 17.0557 176.761 17.0557L176.743 17.0616Z" fill="#00A0D2"/>
<path d="M180.823 17.2031H182.173V21.9624C182.173 22.6052 182.302 23.0711 182.56 23.3601C182.818 23.6491 183.235 23.7965 183.799 23.7965C184.033 23.7965 184.256 23.7553 184.479 23.6786C184.702 23.6019 184.902 23.484 185.084 23.3306C185.266 23.1773 185.413 22.9827 185.524 22.7527C185.636 22.5168 185.694 22.2514 185.694 21.9565V17.209H187.045V24.8699H185.736V23.9027H185.724C185.489 24.2565 185.19 24.5278 184.82 24.7224C184.45 24.9112 183.998 25.0114 183.47 25.0114C183.1 25.0114 182.754 24.9583 182.431 24.8463C182.108 24.7342 181.832 24.5632 181.597 24.345C181.363 24.1209 181.175 23.8378 181.034 23.4958C180.893 23.1537 180.823 22.7527 180.823 22.2868V17.2031Z" fill="#00A0D2"/>
<path d="M190.578 14.2779V24.864H189.228V14.2779H190.578Z" fill="#00A0D2"/>
<path d="M194.869 24.9701C194.1 24.9701 193.489 24.7814 193.037 24.3981C192.586 24.0147 192.362 23.4899 192.362 22.8175V22.4401C192.362 21.7855 192.58 21.2547 193.02 20.8419C193.454 20.429 194.164 20.2285 195.139 20.2285H197.076V19.7803C197.076 19.2672 196.953 18.8898 196.706 18.6421C196.46 18.3944 196.06 18.2705 195.503 18.2705C195.057 18.2705 194.669 18.3413 194.341 18.4829C194.012 18.6244 193.671 18.8072 193.319 19.0431L192.65 18.0346C193.02 17.7752 193.437 17.5452 193.906 17.3564C194.37 17.1677 194.91 17.0675 195.52 17.0675C195.949 17.0675 196.336 17.1205 196.688 17.2267C197.041 17.3328 197.346 17.4921 197.604 17.7044C197.862 17.9167 198.062 18.1703 198.203 18.477C198.344 18.7777 198.42 19.1257 198.42 19.5031V24.864H197.123V23.9381H197.111C197.035 24.0796 196.935 24.2094 196.812 24.3214C196.688 24.4394 196.548 24.5396 196.401 24.6222C196.195 24.7342 195.978 24.8227 195.738 24.8817C195.503 24.9407 195.215 24.9701 194.881 24.9701H194.869ZM197.07 21.3727H195.162C194.634 21.3727 194.253 21.4729 194.029 21.6793C193.801 21.8857 193.689 22.1688 193.689 22.5345V22.7291C193.689 23.1006 193.818 23.3719 194.076 23.5429C194.335 23.7081 194.646 23.7965 195.01 23.7965C195.344 23.7965 195.632 23.7553 195.878 23.6786C196.125 23.6019 196.348 23.4781 196.553 23.3247C196.741 23.1832 196.87 23.024 196.953 22.8411C197.029 22.6583 197.07 22.4224 197.07 22.1334V21.3727Z" fill="#00A0D2"/>
<path d="M204.595 18.53C204.466 18.477 204.325 18.4298 204.172 18.3944C204.02 18.359 203.85 18.3472 203.662 18.3472C203.409 18.3472 203.169 18.3944 202.946 18.4947C202.717 18.5949 202.523 18.7306 202.353 18.9134C202.183 19.0962 202.048 19.3144 201.948 19.5621C201.848 19.8098 201.795 20.087 201.795 20.3878V24.8522H200.445V17.1913H201.754V18.4121H201.766C201.989 17.9816 202.276 17.6513 202.634 17.4095C202.993 17.1736 203.45 17.0557 204.008 17.0557C204.343 17.0557 204.671 17.1087 205 17.209L204.595 18.5241V18.53Z" fill="#00A0D2"/>
<path d="M149.42 14.2897H148.445V24.8699H149.42V14.2897Z" fill="#00A0D2"/>
<path d="M24.9463 10.9989L23.9778 13.2812L28.4094 23.7317L30.053 23.0299L24.9463 10.9989Z" fill="#00A0D2"/>
<path d="M14.0639 9.66015L14.0697 9.64836L13.1012 7.36602L7.98869 19.4206L3.39857 8.5927L1.75505 9.29451L7.02019 21.7029L7.01432 21.7206H8.94545L13.0953 11.9425L17.2452 21.7206H18.2666L19.0414 21.3903L14.0639 9.66015Z" fill="#00A0D2"/>
<path d="M24.3417 9.57169L23.3674 7.27165L22.3989 9.554L22.4047 9.57169L17.2452 21.7206H19.1822L23.3732 11.8481V11.854L24.3417 9.57169Z" fill="#00A0D2"/>
<path d="M15.9246 30.2602C8.08847 30.2602 1.73157 23.8732 1.73157 16C1.73157 13.4523 2.40072 11.0638 3.56292 8.99963L2.72942 7.04165C1.00959 9.59528 0 12.6797 0 16C0 24.8345 7.13171 32 15.9246 32C20.6145 32 24.8289 29.9654 27.7403 26.7276L26.9831 24.9407C24.3828 28.1843 20.3973 30.2661 15.9246 30.2661V30.2602Z" fill="#00A0D2"/>
<path d="M15.9246 0C11.1642 0 6.89692 2.09952 3.97967 5.41983L4.74273 7.21858C7.34302 3.88647 11.3814 1.73977 15.9246 1.73977C23.7606 1.73977 30.1175 8.1268 30.1175 16C30.1175 18.6244 29.4073 21.0778 28.1805 23.195L29.0023 25.1294C30.7984 22.5404 31.8491 19.397 31.8491 16C31.8491 7.1655 24.7174 0 15.9246 0Z" fill="#00A0D2"/>
<path d="M3.98554 1.96978V5.41983H5.67602V1.96978H3.98554Z" fill="#00A0D2"/>
<path d="M26.0498 26.7217V30.1954H27.7403V26.7217H26.0498Z" fill="#00A0D2"/>
</svg>
