<svg width="245" height="38" viewBox="0 0 245 38" fill="none" xmlns="http://www.w3.org/2000/svg">
<path d="M69.7224 8.46701L65.8922 22.8728L62.1181 8.46701H57.397L53.5948 22.9219L49.7927 8.46701H45.0084L51.0905 29.526H55.6783L59.6418 15.6944L63.5983 29.526H68.1931L74.2752 8.46701H69.7224Z" fill="white"/>
<path d="M87.1127 25.38L88.6139 29.526H93.6016L85.422 8.46701H80.6729L72.4933 29.526H77.0812L78.5824 25.38H87.1127ZM82.8475 13.4674L85.7588 21.5562H79.9363L82.8475 13.4674Z" fill="white"/>
<path d="M106.095 8.46701L100.876 18.7619L95.6219 8.46701H90.529L98.4349 22.9709V29.526H102.889L102.911 22.8938L110.795 8.46701H106.095Z" fill="white"/>
<path d="M127.498 18.6358L127.056 18.4958L127.491 18.3347C128.831 17.8304 129.883 16.2267 129.883 14.679C129.883 10.7851 127.161 8.46701 122.609 8.46701H113.468V29.526H123.401C128.087 29.526 130.886 27.1659 130.886 23.209C130.886 21.185 129.462 19.2661 127.505 18.6428L127.498 18.6358ZM117.923 12.2068H122.391C124.313 12.2068 125.415 13.1102 125.415 14.679C125.415 16.2477 124.313 17.1231 122.391 17.1231H117.923V12.2068ZM123.184 25.7792H117.923V20.6318H123.184C125.211 20.6318 126.418 21.5912 126.418 23.209C126.418 24.8268 125.204 25.7862 123.184 25.7862V25.7792Z" fill="white"/>
<path d="M134.015 8.46701V29.526H149.168V25.6251H138.477V8.46701H134.015Z" fill="white"/>
<path d="M166.593 20.7929V16.969H156.372V12.2908H167.512V8.46701H151.911V29.526H167.75V25.7022H156.372V20.7929H166.593Z" fill="white"/>
<path d="M191.545 20.2606C192.303 20.2606 192.92 20.3516 193.404 20.5407C193.888 20.7298 194.316 20.9679 194.695 21.2551L193.931 22.4666C193.51 22.1585 193.117 21.9484 192.759 21.8433C192.394 21.7383 191.994 21.6823 191.552 21.6823C191.251 21.6823 190.963 21.7313 190.69 21.8293C190.416 21.9274 190.171 22.0885 189.96 22.3056C189.75 22.5227 189.581 22.7958 189.455 23.132C189.329 23.4611 189.266 23.8603 189.266 24.3295V25.4781C189.266 25.9683 189.329 26.3815 189.455 26.7317C189.581 27.0818 189.757 27.362 189.974 27.5791C190.192 27.7962 190.437 27.9502 190.725 28.0553C191.012 28.1603 191.3 28.2024 191.602 28.2024C192.198 28.2024 192.696 28.1253 193.089 27.9712C193.482 27.8172 193.839 27.6141 194.162 27.376L194.948 28.6086C194.625 28.8747 194.19 29.1128 193.65 29.3299C193.103 29.547 192.415 29.652 191.588 29.652C190.325 29.652 189.35 29.2879 188.662 28.5525C187.975 27.8172 187.638 26.8017 187.638 25.4921V24.3435C187.638 23.6922 187.729 23.1109 187.919 22.6067C188.108 22.1025 188.368 21.6753 188.711 21.3251C189.048 20.9749 189.462 20.7088 189.946 20.5267C190.43 20.3446 190.97 20.2536 191.566 20.2536L191.545 20.2606Z" fill="white"/>
<path d="M198.273 17.1651V18.93H196.554V17.1651H198.273ZM198.224 20.4287V29.526H196.61V20.4287H198.224Z" fill="white"/>
<path d="M205.835 22.0044C205.681 21.9414 205.512 21.8854 205.33 21.8433C205.148 21.8013 204.944 21.7873 204.72 21.7873C204.418 21.7873 204.13 21.8433 203.864 21.9624C203.59 22.0815 203.359 22.2425 203.155 22.4596C202.952 22.6767 202.791 22.9359 202.671 23.23C202.552 23.5241 202.489 23.8533 202.489 24.2105V29.512H200.875V20.4147H202.44V21.8644H202.454C202.72 21.3531 203.064 20.9609 203.492 20.6738C203.92 20.3937 204.467 20.2536 205.134 20.2536C205.533 20.2536 205.926 20.3166 206.319 20.4357L205.835 21.9974V22.0044Z" fill="white"/>
<path d="M211.23 20.2606C211.987 20.2606 212.605 20.3516 213.089 20.5407C213.573 20.7298 214.001 20.9679 214.379 21.2551L213.615 22.4666C213.194 22.1585 212.801 21.9484 212.443 21.8433C212.078 21.7383 211.679 21.6823 211.237 21.6823C210.935 21.6823 210.647 21.7313 210.374 21.8293C210.1 21.9274 209.855 22.0885 209.644 22.3056C209.434 22.5227 209.265 22.7958 209.139 23.132C209.013 23.4611 208.95 23.8603 208.95 24.3295V25.4781C208.95 25.9683 209.013 26.3815 209.139 26.7317C209.265 27.0818 209.441 27.362 209.658 27.5791C209.876 27.7962 210.121 27.9502 210.409 28.0553C210.696 28.1603 210.984 28.2024 211.286 28.2024C211.882 28.2024 212.38 28.1253 212.773 27.9712C213.166 27.8172 213.524 27.6141 213.846 27.376L214.632 28.6086C214.309 28.8747 213.874 29.1128 213.334 29.3299C212.787 29.547 212.1 29.652 211.272 29.652C210.009 29.652 209.034 29.2879 208.346 28.5525C207.666 27.8242 207.322 26.8017 207.322 25.4921V24.3435C207.322 23.6922 207.413 23.1109 207.603 22.6067C207.792 22.1025 208.052 21.6753 208.396 21.3251C208.732 20.9749 209.146 20.7088 209.63 20.5267C210.114 20.3446 210.654 20.2536 211.251 20.2536L211.23 20.2606Z" fill="white"/>
<path d="M216.105 20.4287H217.719V26.0804C217.719 26.8437 217.873 27.397 218.182 27.7401C218.49 28.0833 218.988 28.2584 219.662 28.2584C219.942 28.2584 220.209 28.2094 220.475 28.1183C220.742 28.0273 220.981 27.8872 221.198 27.7051C221.415 27.523 221.591 27.2919 221.724 27.0188C221.857 26.7387 221.928 26.4235 221.928 26.0734V20.4357H223.541V29.533H221.977V28.3844H221.963C221.682 28.8046 221.324 29.1268 220.882 29.3579C220.44 29.582 219.9 29.7011 219.269 29.7011C218.827 29.7011 218.413 29.638 218.027 29.505C217.641 29.3719 217.312 29.1688 217.031 28.9097C216.75 28.6436 216.526 28.3074 216.358 27.9012C216.189 27.495 216.105 27.0188 216.105 26.4655V20.4287Z" fill="white"/>
<path d="M227.764 16.955V29.526H226.151V16.955H227.764Z" fill="white"/>
<path d="M232.892 29.652C231.973 29.652 231.244 29.4279 230.703 28.9727C230.163 28.5175 229.897 27.8942 229.897 27.0958V26.6476C229.897 25.8703 230.156 25.24 230.682 24.7497C231.201 24.2595 232.05 24.0214 233.215 24.0214H235.53V23.4891C235.53 22.8798 235.382 22.4316 235.088 22.1375C234.793 21.8433 234.316 21.6963 233.65 21.6963C233.117 21.6963 232.654 21.7803 232.261 21.9484C231.868 22.1165 231.461 22.3336 231.04 22.6137L230.24 21.4161C230.682 21.108 231.18 20.8349 231.742 20.6108C232.296 20.3867 232.941 20.2676 233.671 20.2676C234.183 20.2676 234.646 20.3306 235.067 20.4567C235.488 20.5828 235.852 20.7718 236.161 21.024C236.47 21.2761 236.708 21.5772 236.877 21.9414C237.045 22.2986 237.136 22.7118 237.136 23.16V29.526H235.586V28.4265H235.572C235.481 28.5945 235.361 28.7486 235.214 28.8817C235.067 29.0217 234.898 29.1408 234.723 29.2388C234.477 29.3719 234.218 29.477 233.93 29.547C233.65 29.617 233.306 29.652 232.906 29.652H232.892ZM235.523 25.38H233.243C232.611 25.38 232.155 25.4991 231.889 25.7442C231.615 25.9893 231.482 26.3255 231.482 26.7597V26.9908C231.482 27.432 231.636 27.7541 231.945 27.9572C232.254 28.1533 232.625 28.2584 233.06 28.2584C233.46 28.2584 233.804 28.2094 234.099 28.1183C234.393 28.0273 234.66 27.8802 234.905 27.6981C235.13 27.53 235.284 27.341 235.382 27.1238C235.474 26.9067 235.523 26.6266 235.523 26.2834V25.38Z" fill="white"/>
<path d="M244.516 22.0044C244.362 21.9414 244.193 21.8854 244.011 21.8433C243.828 21.8013 243.625 21.7873 243.401 21.7873C243.099 21.7873 242.811 21.8433 242.545 21.9624C242.271 22.0815 242.04 22.2425 241.836 22.4596C241.633 22.6767 241.471 22.9359 241.352 23.23C241.233 23.5241 241.17 23.8533 241.17 24.2105V29.512H239.556V20.4147H241.121V21.8644H241.135C241.401 21.3531 241.745 20.9609 242.173 20.6738C242.601 20.3937 243.148 20.2536 243.814 20.2536C244.214 20.2536 244.607 20.3166 245 20.4357L244.516 21.9974V22.0044Z" fill="white"/>
<path d="M178.575 16.969H177.41V29.533H178.575V16.969Z" fill="white"/>
<path d="M29.8139 13.0612L28.6564 15.7715L33.9528 28.1814L35.917 27.348L29.8139 13.0612Z" fill="white"/>
<path d="M16.808 11.4714L16.815 11.4574L15.6576 8.74714L9.54746 23.0619L4.0617 10.2038L2.09749 11.0372L8.38998 25.7722L8.38296 25.7932H10.6909L15.6505 14.1817L20.6102 25.7932H21.8308L22.7568 25.401L16.808 11.4714Z" fill="white"/>
<path d="M29.0913 11.3664L27.9268 8.63509L26.7694 11.3454L26.7764 11.3664L20.6102 25.7932H22.9251L27.9339 14.0697V14.0767L29.0913 11.3664Z" fill="white"/>
<path d="M19.0318 35.934C9.66671 35.934 2.06943 28.3494 2.06943 19C2.06943 15.9746 2.86915 13.1382 4.25812 10.6871L3.26199 8.36196C1.20659 11.3944 0 15.0571 0 19C0 29.491 8.52326 38 19.0318 38C24.6368 38 29.6736 35.5839 33.153 31.739L32.2481 29.617C29.1404 33.4689 24.3772 35.941 19.0318 35.941V35.934Z" fill="white"/>
<path d="M19.0318 0C13.3426 0 8.24266 2.49318 4.75619 6.43605L5.66815 8.57206C8.77581 4.61519 13.6021 2.06598 19.0318 2.06598C28.3969 2.06598 35.9941 9.65057 35.9941 19C35.9941 22.1165 35.1453 25.0299 33.6792 27.544L34.6613 29.8411C36.8079 26.7667 38.0636 23.0339 38.0636 19C38.0636 8.50903 29.5403 0 19.0318 0Z" fill="white"/>
<path d="M4.76321 2.33911V6.43605H6.78354V2.33911H4.76321Z" fill="white"/>
<path d="M31.1327 31.732V35.857H33.153V31.732H31.1327Z" fill="white"/>
</svg>
