<svg width="36" height="30" viewBox="0 0 36 30" fill="none" xmlns="http://www.w3.org/2000/svg">
<path d="M7.61667 11.1167C7.21667 11.1167 6.86667 11.2667 6.6 11.5667C6.31667 11.8667 6.18333 12.2167 6.18333 12.65C6.18333 13.0833 6.31667 13.4167 6.6 13.7333C6.88333 14.0333 7.21667 14.1833 7.61667 14.1833C8.01667 14.1833 8.36667 14.0333 8.66667 13.7333C8.95 13.4333 9.11667 13.0833 9.11667 12.65C9.11667 12.2167 8.96667 11.8667 8.66667 11.5667C8.38333 11.25 8.05 11.1167 7.61667 11.1167Z" fill="#555555"/>
<path d="M20.0667 11.0833C19.6667 11.0833 19.3167 11.2333 19.05 11.5333C18.7667 11.8333 18.6333 12.1833 18.6333 12.6167C18.6333 13.05 18.7667 13.3833 19.05 13.7C19.3333 14 19.6667 14.15 20.0667 14.15C20.4667 14.15 20.8167 14 21.1167 13.7C21.4 13.4 21.5667 13.05 21.5667 12.6167C21.5667 12.1833 21.4167 11.85 21.1167 11.5333C20.85 11.2167 20.5 11.0833 20.0667 11.0833Z" fill="#555555"/>
<path d="M28.3833 11.1167C27.9833 11.1167 27.6333 11.2667 27.3667 11.5667C27.0833 11.8667 26.95 12.2167 26.95 12.65C26.95 13.0833 27.0833 13.4167 27.3667 13.7333C27.65 14.0333 27.9833 14.1833 28.3833 14.1833C28.7833 14.1833 29.1333 14.0333 29.4333 13.7333C29.7167 13.4333 29.8833 13.0833 29.8833 12.65C29.8833 12.2167 29.7333 11.8667 29.4333 11.5667C29.15 11.25 28.7833 11.1167 28.3833 11.1167Z" fill="#555555"/>
<path d="M32.0667 0H3.93333C1.78333 0 0 1.8 0 3.98333V20.1C0 22.2833 1.78333 24.0833 3.93333 24.0833H14.9833C14.9833 24.0833 17.1167 30 17.8833 30C18.65 30 20.9667 24.0833 20.9667 24.0833H32.0667C34.2167 24.0833 36 22.2833 36 20.1V3.98333C36 1.8 34.2167 0 32.0667 0ZM10.45 14.8833C9.9 15.5167 9.03333 15.7833 8.1 15.7833C7.25 15.7833 6.63333 15.5333 6.18333 15.1833H6.16667V15.6333H4.05V6.3H6.16667V9.88333H6.21667C6.8 9.38333 7.55 9.23333 8.43333 9.18333C9.18333 9.16667 9.98333 9.63333 10.4833 10.2C10.95 10.7667 11.3 11.6333 11.3 12.6C11.3 13.65 11.0333 14.2667 10.45 14.9V14.8833ZM15 15.7167H12.85V9.93333C12.85 8.6 11.8 8.43333 11.8 8.43333V6.11667C11.8 6.11667 14.8167 6.3 15 10V15.7167ZM23.4667 13.95C23.2833 14.3833 23.0167 14.7333 22.6667 15.0667C22.3333 15.3833 21.9333 15.6333 21.4833 15.8167C21.0333 16 20.5667 16.0833 20.0833 16.0833C19.6 16.0833 19.1333 16 18.7 15.8167C18.25 15.6333 17.85 15.3833 17.5167 15.0667C17.1667 14.7333 16.9 14.35 16.7167 13.95C16.5333 13.55 16.45 13.1 16.45 12.6167C16.45 12.1333 16.5333 11.7167 16.7167 11.2833C16.9 10.8833 17.1667 10.5 17.5167 10.1667C17.8667 9.85 18.25 9.6 18.7 9.41667C19.15 9.23333 19.6167 9.15 20.0833 9.15C20.55 9.15 21.0333 9.23333 21.4833 9.41667C21.9333 9.6 22.3333 9.85 22.6667 10.1667C23.0167 10.5 23.2667 10.8667 23.4667 11.2833C23.65 11.7167 23.7333 12.1333 23.7333 12.6167C23.7333 13.1 23.65 13.5167 23.4667 13.95ZM31.9333 14.8667C31.9333 16.5 31.6167 17.5 30.9167 18.2C30.05 19.0333 28.8333 19.0833 27.8167 18.95V17.2667C28.6833 17.35 29.8667 16.7667 29.8667 15.65V15.2167H29.85C29.3667 15.8833 28.6667 16.1333 27.7167 16.1333C26.85 16.1333 26.1 15.8167 25.5833 15.2167C25.0667 14.6167 24.8333 13.8 24.8333 12.7833C24.8333 11.6333 25.1167 10.7333 25.6833 10.0667C26.2667 9.4 27.0667 9.08333 27.9833 9.08333C28.8 9.08333 29.3333 9.28333 29.85 9.75H29.8667V9.23333H31.9833V14.8833H31.9667L31.9333 14.8667Z" fill="#555555"/>
</svg>
