<svg width="800" height="86" viewBox="0 0 800 86" fill="none" xmlns="http://www.w3.org/2000/svg">
<path d="M98.8881 0L83.5666 57.7254L68.4415 0H49.5843L34.3751 57.9499L19.1378 0H0L24.3292 84.3851H42.7093L58.5359 28.9609L74.3905 84.3851H92.7426L117.072 0H98.8881Z" fill="white"/>
<path d="M168.424 67.7719L174.429 84.3851H194.381L161.633 0H142.636L109.916 84.3851H128.268L134.273 67.7719H168.424ZM151.363 20.0369L163.008 52.4496H139.717L151.363 20.0369Z" fill="white"/>
<path d="M244.386 0L223.48 41.2525L202.462 0H182.09L213.715 58.1183V84.3851H231.562L231.646 57.8096L263.187 0H244.386Z" fill="white"/>
<path d="M329.973 40.7754L328.205 40.2141L329.945 39.5687C335.305 37.5482 339.514 31.1218 339.514 24.9199C339.514 9.31688 328.626 0.0280629 310.414 0.0280629H273.85V84.4132H313.585C332.33 84.4132 343.527 74.956 343.527 59.1005C343.527 50.9903 337.83 43.3011 330.001 40.8035L329.973 40.7754ZM291.697 15.0137H309.572C317.261 15.0137 321.667 18.6338 321.667 24.9199C321.667 31.2059 317.261 34.7138 309.572 34.7138H291.697V15.0137ZM312.715 69.3996H291.669V48.7733H312.715C320.825 48.7733 325.652 52.6179 325.652 59.1005C325.652 65.583 320.797 69.4276 312.715 69.4276V69.3996Z" fill="white"/>
<path d="M356.042 0V84.3851H416.682V68.7541H373.889V0H356.042Z" fill="white"/>
<path d="M486.387 49.3907V34.0684H445.473V15.3223H490.063V0H427.626V84.3851H490.989V69.0628H445.473V49.3907H486.387Z" fill="white"/>
<path d="M586.173 47.2579C589.203 47.2579 591.673 47.6227 593.609 48.3804C595.545 49.1381 597.257 50.0923 598.772 51.2429L595.714 56.0977C594.03 54.863 592.458 54.0211 591.027 53.6001C589.568 53.1792 587.969 52.9547 586.201 52.9547C584.994 52.9547 583.844 53.1511 582.749 53.544C581.655 53.9369 580.673 54.5823 579.831 55.4523C578.989 56.3222 578.316 57.4167 577.811 58.7637C577.305 60.0827 577.053 61.6823 577.053 63.5625V68.1648C577.053 70.1292 577.305 71.7849 577.811 73.188C578.316 74.5912 579.017 75.7137 579.887 76.5837C580.757 77.4536 581.739 78.071 582.89 78.4919C584.04 78.9129 585.191 79.0813 586.397 79.0813C588.782 79.0813 590.775 78.7726 592.346 78.1552C593.918 77.5378 595.349 76.724 596.64 75.7698L599.783 80.7089C598.492 81.7753 596.752 82.7294 594.591 83.5994C592.402 84.4693 589.652 84.8903 586.341 84.8903C581.29 84.8903 577.39 83.431 574.64 80.4844C571.89 77.5378 570.543 73.4687 570.543 68.2209V63.6186C570.543 61.0087 570.907 58.6795 571.665 56.659C572.423 54.6385 573.461 52.9266 574.836 51.5235C576.183 50.1203 577.839 49.0539 579.775 48.3243C581.711 47.5947 583.872 47.2299 586.257 47.2299L586.173 47.2579Z" fill="white"/>
<path d="M613.112 34.8822V41.954H606.237V34.8822H613.112ZM612.887 47.9314V84.3851H606.433V47.9314H612.887Z" fill="white"/>
<path d="M643.334 54.2456C642.716 53.993 642.043 53.7685 641.313 53.6001C640.584 53.4318 639.77 53.3756 638.872 53.3756C637.665 53.3756 636.515 53.6001 635.448 54.0772C634.354 54.5543 633.428 55.1997 632.614 56.0697C631.8 56.9396 631.155 57.9779 630.678 59.1566C630.201 60.3352 629.948 61.6542 629.948 63.0854V84.329H623.494V47.8753H629.752V53.6843H629.808C630.874 51.6357 632.249 50.0642 633.961 48.9136C635.673 47.7911 637.862 47.2299 640.528 47.2299C642.127 47.2299 643.698 47.4824 645.27 47.9595L643.334 54.2175V54.2456Z" fill="white"/>
<path d="M664.913 47.2579C667.943 47.2579 670.413 47.6227 672.349 48.3804C674.285 49.1381 675.997 50.0923 677.512 51.2429L674.454 56.0977C672.77 54.863 671.199 54.0211 669.767 53.6001C668.308 53.1792 666.709 52.9547 664.941 52.9547C663.734 52.9547 662.584 53.1511 661.489 53.544C660.395 53.9369 659.413 54.5823 658.571 55.4523C657.729 56.3222 657.056 57.4167 656.551 58.7637C656.045 60.0827 655.793 61.6823 655.793 63.5625V68.1648C655.793 70.1292 656.045 71.7849 656.551 73.188C657.056 74.5912 657.757 75.7137 658.627 76.5837C659.497 77.4536 660.479 78.071 661.63 78.4919C662.78 78.9129 663.931 79.0813 665.137 79.0813C667.523 79.0813 669.515 78.7726 671.086 78.1552C672.658 77.5378 674.089 76.724 675.38 75.7698L678.523 80.7089C677.232 81.7753 675.492 82.7294 673.331 83.5994C671.142 84.4693 668.392 84.8903 665.081 84.8903C660.03 84.8903 656.13 83.431 653.38 80.4844C650.63 77.5378 649.283 73.4687 649.283 68.2209V63.6186C649.283 61.0087 649.647 58.6795 650.405 56.659C651.163 54.6385 652.201 52.9266 653.576 51.5235C654.923 50.1203 656.579 49.0539 658.515 48.3243C660.451 47.5947 662.612 47.2299 664.997 47.2299L664.913 47.2579Z" fill="white"/>
<path d="M684.443 47.9314H690.898V70.5782C690.898 73.637 691.515 75.854 692.75 77.2291C693.984 78.6042 695.977 79.3058 698.671 79.3058C699.793 79.3058 700.859 79.1093 701.926 78.7445C702.992 78.3797 703.946 77.8184 704.816 77.0888C705.686 76.3591 706.387 75.4331 706.921 74.3386C707.454 73.2161 707.734 71.9533 707.734 70.5501V47.9595H714.188V84.4132H707.931V79.8109H707.875C706.752 81.4947 705.321 82.7855 703.553 83.7116C701.785 84.6096 699.625 85.0867 697.099 85.0867C695.331 85.0867 693.676 84.8341 692.132 84.3009C690.589 83.7678 689.27 82.9539 688.148 81.9156C687.025 80.8492 686.127 79.5022 685.454 77.8745C684.78 76.2469 684.443 74.3386 684.443 72.1217V47.9314Z" fill="white"/>
<path d="M731.053 34.0122V84.3851H724.599V34.0122H731.053Z" fill="white"/>
<path d="M751.594 84.8903C747.918 84.8903 745 83.9923 742.839 82.1682C740.678 80.3441 739.612 77.8465 739.612 74.6473V72.8513C739.612 69.7363 740.65 67.2106 742.755 65.2462C744.831 63.2818 748.227 62.3277 752.885 62.3277H762.145V60.1949C762.145 57.7534 761.556 55.9574 760.377 54.7788C759.199 53.6001 757.291 53.0108 754.625 53.0108C752.492 53.0108 750.64 53.3476 749.069 54.0211C747.497 54.6946 745.87 55.5645 744.186 56.6871L740.987 51.8883C742.755 50.6535 744.747 49.5591 746.992 48.6611C749.209 47.7631 751.791 47.286 754.709 47.286C756.758 47.286 758.61 47.5386 760.293 48.0437C761.977 48.5488 763.436 49.3065 764.671 50.3168C765.905 51.327 766.86 52.5337 767.533 53.993C768.206 55.4242 768.571 57.0799 768.571 58.876V84.3851H762.37V79.9793H762.314C761.949 80.6528 761.472 81.2702 760.883 81.8034C760.293 82.3646 759.62 82.8417 758.918 83.2346C757.936 83.7678 756.898 84.1887 755.747 84.4693C754.625 84.75 753.25 84.8903 751.65 84.8903H751.594ZM762.117 67.7719H752.997C750.472 67.7719 748.648 68.249 747.581 69.2312C746.487 70.2134 745.954 71.5604 745.954 73.3003V74.2264C745.954 75.9943 746.571 77.2852 747.806 78.099C749.041 78.8848 750.528 79.3058 752.268 79.3058C753.867 79.3058 755.242 79.1093 756.421 78.7445C757.599 78.3797 758.666 77.7904 759.648 77.0607C760.546 76.3872 761.163 75.6295 761.556 74.7596C761.921 73.8896 762.117 72.7671 762.117 71.392V67.7719Z" fill="white"/>
<path d="M798.064 54.2456C797.446 53.993 796.773 53.7685 796.043 53.6001C795.314 53.4318 794.5 53.3756 793.602 53.3756C792.395 53.3756 791.245 53.6001 790.179 54.0772C789.084 54.5543 788.158 55.1997 787.344 56.0697C786.531 56.9396 785.885 57.9779 785.408 59.1566C784.931 60.3352 784.679 61.6542 784.679 63.0854V84.329H778.224V47.8753H784.482V53.6843H784.538C785.604 51.6357 786.98 50.0642 788.691 48.9136C790.403 47.7911 792.592 47.2299 795.258 47.2299C796.857 47.2299 798.429 47.4824 800 47.9595L798.064 54.2175V54.2456Z" fill="white"/>
<path d="M534.287 34.0684H529.629V84.4132H534.287V34.0684Z" fill="white"/>
</svg>
