<svg width="1000" height="286" viewBox="0 0 1000 286" fill="none" xmlns="http://www.w3.org/2000/svg">
<g filter="url(#filter0_d_4949_82)">
<path d="M198.888 96L183.567 153.725L168.442 96H149.584L134.375 153.95L119.138 96H100L124.329 180.385H142.709L158.536 124.961L174.391 180.385H192.743L217.072 96H198.888Z" fill="white"/>
<path d="M268.424 163.772L274.429 180.385H294.381L261.633 96H242.636L209.916 180.385H228.268L234.273 163.772H268.424ZM251.363 116.037L263.008 148.45H239.717L251.363 116.037Z" fill="white"/>
<path d="M344.386 96L323.48 137.252L302.462 96H282.09L313.715 154.118V180.385H331.562L331.646 153.81L363.187 96H344.386Z" fill="white"/>
<path d="M429.973 136.775L428.205 136.214L429.945 135.569C435.305 133.548 439.514 127.122 439.514 120.92C439.514 105.317 428.626 96.0281 410.414 96.0281H373.85V180.413H413.585C432.33 180.413 443.527 170.956 443.527 155.1C443.527 146.99 437.83 139.301 430.001 136.803L429.973 136.775ZM391.697 111.014H409.572C417.261 111.014 421.667 114.634 421.667 120.92C421.667 127.206 417.261 130.714 409.572 130.714H391.697V111.014ZM412.715 165.4H391.669V144.773H412.715C420.825 144.773 425.652 148.618 425.652 155.1C425.652 161.583 420.797 165.428 412.715 165.428V165.4Z" fill="white"/>
<path d="M456.042 96V180.385H516.682V164.754H473.889V96H456.042Z" fill="white"/>
<path d="M586.387 145.391V130.068H545.473V111.322H590.063V96H527.626V180.385H590.989V165.063H545.473V145.391H586.387Z" fill="white"/>
<path d="M686.173 143.258C689.203 143.258 691.673 143.623 693.609 144.38C695.545 145.138 697.257 146.092 698.772 147.243L695.714 152.098C694.03 150.863 692.458 150.021 691.027 149.6C689.568 149.179 687.969 148.955 686.201 148.955C684.994 148.955 683.844 149.151 682.749 149.544C681.655 149.937 680.673 150.582 679.831 151.452C678.989 152.322 678.316 153.417 677.811 154.764C677.305 156.083 677.053 157.682 677.053 159.562V164.165C677.053 166.129 677.305 167.785 677.811 169.188C678.316 170.591 679.017 171.714 679.887 172.584C680.757 173.454 681.739 174.071 682.89 174.492C684.04 174.913 685.191 175.081 686.397 175.081C688.782 175.081 690.775 174.773 692.346 174.155C693.918 173.538 695.349 172.724 696.64 171.77L699.783 176.709C698.492 177.775 696.752 178.729 694.591 179.599C692.402 180.469 689.652 180.89 686.341 180.89C681.29 180.89 677.39 179.431 674.64 176.484C671.89 173.538 670.543 169.469 670.543 164.221V159.619C670.543 157.009 670.907 154.68 671.665 152.659C672.423 150.638 673.461 148.927 674.836 147.523C676.183 146.12 677.839 145.054 679.775 144.324C681.711 143.595 683.872 143.23 686.257 143.23L686.173 143.258Z" fill="white"/>
<path d="M713.112 130.882V137.954H706.237V130.882H713.112ZM712.887 143.931V180.385H706.433V143.931H712.887Z" fill="white"/>
<path d="M743.334 150.246C742.716 149.993 742.043 149.769 741.313 149.6C740.584 149.432 739.77 149.376 738.872 149.376C737.665 149.376 736.515 149.6 735.448 150.077C734.354 150.554 733.428 151.2 732.614 152.07C731.8 152.94 731.155 153.978 730.678 155.157C730.201 156.335 729.948 157.654 729.948 159.085V180.329H723.494V143.875H729.752V149.684H729.808C730.874 147.636 732.249 146.064 733.961 144.914C735.673 143.791 737.862 143.23 740.528 143.23C742.127 143.23 743.698 143.482 745.27 143.959L743.334 150.218V150.246Z" fill="white"/>
<path d="M764.913 143.258C767.943 143.258 770.413 143.623 772.349 144.38C774.285 145.138 775.997 146.092 777.512 147.243L774.454 152.098C772.77 150.863 771.199 150.021 769.767 149.6C768.308 149.179 766.709 148.955 764.941 148.955C763.734 148.955 762.584 149.151 761.489 149.544C760.395 149.937 759.413 150.582 758.571 151.452C757.729 152.322 757.056 153.417 756.551 154.764C756.045 156.083 755.793 157.682 755.793 159.562V164.165C755.793 166.129 756.045 167.785 756.551 169.188C757.056 170.591 757.757 171.714 758.627 172.584C759.497 173.454 760.479 174.071 761.63 174.492C762.78 174.913 763.931 175.081 765.137 175.081C767.523 175.081 769.515 174.773 771.086 174.155C772.658 173.538 774.089 172.724 775.38 171.77L778.523 176.709C777.232 177.775 775.492 178.729 773.331 179.599C771.142 180.469 768.392 180.89 765.081 180.89C760.03 180.89 756.13 179.431 753.38 176.484C750.63 173.538 749.283 169.469 749.283 164.221V159.619C749.283 157.009 749.647 154.68 750.405 152.659C751.163 150.638 752.201 148.927 753.576 147.523C754.923 146.12 756.579 145.054 758.515 144.324C760.451 143.595 762.612 143.23 764.997 143.23L764.913 143.258Z" fill="white"/>
<path d="M784.443 143.931H790.898V166.578C790.898 169.637 791.515 171.854 792.75 173.229C793.984 174.604 795.977 175.306 798.671 175.306C799.793 175.306 800.859 175.109 801.926 174.744C802.992 174.38 803.946 173.818 804.816 173.089C805.686 172.359 806.387 171.433 806.921 170.339C807.454 169.216 807.734 167.953 807.734 166.55V143.959H814.188V180.413H807.931V175.811H807.875C806.752 177.495 805.321 178.786 803.553 179.712C801.785 180.61 799.625 181.087 797.099 181.087C795.331 181.087 793.676 180.834 792.132 180.301C790.589 179.768 789.27 178.954 788.148 177.916C787.025 176.849 786.127 175.502 785.454 173.875C784.78 172.247 784.443 170.339 784.443 168.122V143.931Z" fill="white"/>
<path d="M831.053 130.012V180.385H824.599V130.012H831.053Z" fill="white"/>
<path d="M851.594 180.89C847.918 180.89 845 179.992 842.839 178.168C840.678 176.344 839.612 173.846 839.612 170.647V168.851C839.612 165.736 840.65 163.211 842.755 161.246C844.831 159.282 848.227 158.328 852.885 158.328H862.145V156.195C862.145 153.753 861.556 151.957 860.377 150.779C859.199 149.6 857.291 149.011 854.625 149.011C852.492 149.011 850.64 149.348 849.069 150.021C847.497 150.695 845.87 151.565 844.186 152.687L840.987 147.888C842.755 146.654 844.747 145.559 846.992 144.661C849.209 143.763 851.791 143.286 854.709 143.286C856.758 143.286 858.61 143.539 860.293 144.044C861.977 144.549 863.436 145.307 864.671 146.317C865.906 147.327 866.86 148.534 867.533 149.993C868.206 151.424 868.571 153.08 868.571 154.876V180.385H862.37V175.979H862.314C861.949 176.653 861.472 177.27 860.883 177.803C860.293 178.365 859.62 178.842 858.918 179.235C857.936 179.768 856.898 180.189 855.747 180.469C854.625 180.75 853.25 180.89 851.65 180.89H851.594ZM862.117 163.772H852.997C850.472 163.772 848.648 164.249 847.581 165.231C846.487 166.213 845.954 167.56 845.954 169.3V170.226C845.954 171.994 846.571 173.285 847.806 174.099C849.041 174.885 850.528 175.306 852.268 175.306C853.867 175.306 855.242 175.109 856.421 174.744C857.599 174.38 858.666 173.79 859.648 173.061C860.546 172.387 861.163 171.63 861.556 170.76C861.921 169.89 862.117 168.767 862.117 167.392V163.772Z" fill="white"/>
<path d="M898.064 150.246C897.446 149.993 896.773 149.769 896.043 149.6C895.314 149.432 894.5 149.376 893.602 149.376C892.395 149.376 891.245 149.6 890.179 150.077C889.084 150.554 888.158 151.2 887.344 152.07C886.531 152.94 885.885 153.978 885.408 155.157C884.931 156.335 884.679 157.654 884.679 159.085V180.329H878.224V143.875H884.482V149.684H884.538C885.604 147.636 886.98 146.064 888.691 144.914C890.403 143.791 892.592 143.23 895.258 143.23C896.857 143.23 898.429 143.482 900 143.959L898.064 150.218V150.246Z" fill="white"/>
<path d="M634.287 130.068H629.629V180.413H634.287V130.068Z" fill="white"/>
</g>
<defs>
<filter id="filter0_d_4949_82" x="0" y="0" width="1000" height="285.087" filterUnits="userSpaceOnUse" color-interpolation-filters="sRGB">
<feFlood flood-opacity="0" result="BackgroundImageFix"/>
<feColorMatrix in="SourceAlpha" type="matrix" values="0 0 0 0 0 0 0 0 0 0 0 0 0 0 0 0 0 0 127 0" result="hardAlpha"/>
<feOffset dy="4"/>
<feGaussianBlur stdDeviation="50"/>
<feComposite in2="hardAlpha" operator="out"/>
<feColorMatrix type="matrix" values="0 0 0 0 0 0 0 0 0 0 0 0 0 0 0 0 0 0 0.2 0"/>
<feBlend mode="normal" in2="BackgroundImageFix" result="effect1_dropShadow_4949_82"/>
<feBlend mode="normal" in="SourceGraphic" in2="effect1_dropShadow_4949_82" result="shape"/>
</filter>
</defs>
</svg>
